<mxfile host="app.diagrams.net" modified="2023-11-14T19:23:41.105Z" agent="Mozilla/5.0 (Windows NT 10.0; Win64; x64) AppleWebKit/537.36 (KHTML, like Gecko) Chrome/116.0.0.0 Safari/537.36 OPR/102.0.0.0" etag="2oruu9Dur4i-vH0X2iTj" version="22.1.1" type="github">
  <diagram name="PÃ¡gina-1" id="XOLRJrRksC3ue8zFNfLt">
    <mxGraphModel dx="1845" dy="814" grid="1" gridSize="10" guides="1" tooltips="1" connect="1" arrows="1" fold="1" page="1" pageScale="1" pageWidth="1169" pageHeight="827" math="0" shadow="0">
      <root>
        <mxCell id="0" />
        <mxCell id="1" parent="0" />
        <mxCell id="EWZKFUjDIKVQ4XLmrkwc-2" value="PC" style="rounded=0;whiteSpace=wrap;html=1;" parent="1" vertex="1">
          <mxGeometry x="440" y="440" width="60" height="40" as="geometry" />
        </mxCell>
        <mxCell id="EWZKFUjDIKVQ4XLmrkwc-12" value="" style="endArrow=none;html=1;rounded=0;exitX=1;exitY=0.5;exitDx=0;exitDy=0;" parent="1" source="EWZKFUjDIKVQ4XLmrkwc-40" target="EWZKFUjDIKVQ4XLmrkwc-2" edge="1">
          <mxGeometry width="50" height="50" relative="1" as="geometry">
            <mxPoint x="340" y="460" as="sourcePoint" />
            <mxPoint x="370" y="250" as="targetPoint" />
          </mxGeometry>
        </mxCell>
        <mxCell id="EWZKFUjDIKVQ4XLmrkwc-13" value="" style="endArrow=none;html=1;rounded=0;entryX=0;entryY=0.25;entryDx=0;entryDy=0;" parent="1" target="EWZKFUjDIKVQ4XLmrkwc-2" edge="1">
          <mxGeometry width="50" height="50" relative="1" as="geometry">
            <mxPoint x="400" y="460" as="sourcePoint" />
            <mxPoint x="370" y="250" as="targetPoint" />
          </mxGeometry>
        </mxCell>
        <mxCell id="EWZKFUjDIKVQ4XLmrkwc-14" value="" style="endArrow=none;html=1;rounded=0;entryX=0;entryY=0.75;entryDx=0;entryDy=0;" parent="1" target="EWZKFUjDIKVQ4XLmrkwc-2" edge="1">
          <mxGeometry width="50" height="50" relative="1" as="geometry">
            <mxPoint x="400" y="460" as="sourcePoint" />
            <mxPoint x="370" y="250" as="targetPoint" />
          </mxGeometry>
        </mxCell>
        <mxCell id="EWZKFUjDIKVQ4XLmrkwc-15" value="" style="endArrow=none;html=1;rounded=0;exitX=0;exitY=0.5;exitDx=0;exitDy=0;entryX=1;entryY=0.5;entryDx=0;entryDy=0;" parent="1" source="EWZKFUjDIKVQ4XLmrkwc-41" target="EWZKFUjDIKVQ4XLmrkwc-2" edge="1">
          <mxGeometry width="50" height="50" relative="1" as="geometry">
            <mxPoint x="560" y="460" as="sourcePoint" />
            <mxPoint x="370" y="250" as="targetPoint" />
          </mxGeometry>
        </mxCell>
        <mxCell id="EWZKFUjDIKVQ4XLmrkwc-16" value="" style="endArrow=none;html=1;rounded=0;entryX=1;entryY=0.25;entryDx=0;entryDy=0;" parent="1" target="EWZKFUjDIKVQ4XLmrkwc-2" edge="1">
          <mxGeometry width="50" height="50" relative="1" as="geometry">
            <mxPoint x="530" y="460" as="sourcePoint" />
            <mxPoint x="370" y="250" as="targetPoint" />
          </mxGeometry>
        </mxCell>
        <mxCell id="EWZKFUjDIKVQ4XLmrkwc-17" value="" style="endArrow=none;html=1;rounded=0;entryX=1;entryY=0.75;entryDx=0;entryDy=0;" parent="1" target="EWZKFUjDIKVQ4XLmrkwc-2" edge="1">
          <mxGeometry width="50" height="50" relative="1" as="geometry">
            <mxPoint x="530" y="460" as="sourcePoint" />
            <mxPoint x="370" y="250" as="targetPoint" />
          </mxGeometry>
        </mxCell>
        <mxCell id="EWZKFUjDIKVQ4XLmrkwc-23" value="" style="endArrow=none;html=1;rounded=0;exitX=0.5;exitY=0;exitDx=0;exitDy=0;entryX=0.5;entryY=1;entryDx=0;entryDy=0;" parent="1" source="EWZKFUjDIKVQ4XLmrkwc-2" target="EWZKFUjDIKVQ4XLmrkwc-69" edge="1">
          <mxGeometry width="50" height="50" relative="1" as="geometry">
            <mxPoint x="370" y="300" as="sourcePoint" />
            <mxPoint x="470" y="390" as="targetPoint" />
          </mxGeometry>
        </mxCell>
        <mxCell id="EWZKFUjDIKVQ4XLmrkwc-25" value="" style="endArrow=none;html=1;rounded=0;entryX=0.25;entryY=1;entryDx=0;entryDy=0;" parent="1" target="EWZKFUjDIKVQ4XLmrkwc-69" edge="1">
          <mxGeometry width="50" height="50" relative="1" as="geometry">
            <mxPoint x="470" y="430" as="sourcePoint" />
            <mxPoint x="455" y="390" as="targetPoint" />
          </mxGeometry>
        </mxCell>
        <mxCell id="EWZKFUjDIKVQ4XLmrkwc-26" value="" style="endArrow=none;html=1;rounded=0;entryX=0.75;entryY=1;entryDx=0;entryDy=0;" parent="1" target="EWZKFUjDIKVQ4XLmrkwc-69" edge="1">
          <mxGeometry width="50" height="50" relative="1" as="geometry">
            <mxPoint x="470" y="430" as="sourcePoint" />
            <mxPoint x="485" y="390" as="targetPoint" />
          </mxGeometry>
        </mxCell>
        <mxCell id="EWZKFUjDIKVQ4XLmrkwc-28" value="" style="endArrow=none;html=1;rounded=0;entryX=0.25;entryY=0;entryDx=0;entryDy=0;" parent="1" target="EWZKFUjDIKVQ4XLmrkwc-49" edge="1">
          <mxGeometry width="50" height="50" relative="1" as="geometry">
            <mxPoint x="470" y="520" as="sourcePoint" />
            <mxPoint x="440" y="550" as="targetPoint" />
          </mxGeometry>
        </mxCell>
        <mxCell id="EWZKFUjDIKVQ4XLmrkwc-29" value="" style="endArrow=none;html=1;rounded=0;entryX=0.825;entryY=0.025;entryDx=0;entryDy=0;entryPerimeter=0;" parent="1" target="EWZKFUjDIKVQ4XLmrkwc-49" edge="1">
          <mxGeometry width="50" height="50" relative="1" as="geometry">
            <mxPoint x="470" y="520" as="sourcePoint" />
            <mxPoint x="500" y="550" as="targetPoint" />
          </mxGeometry>
        </mxCell>
        <mxCell id="EWZKFUjDIKVQ4XLmrkwc-40" value="Pessoa" style="swimlane;whiteSpace=wrap;html=1;" parent="1" vertex="1" collapsed="1">
          <mxGeometry x="260" y="445" width="80" height="30" as="geometry">
            <mxRectangle x="260" y="445" width="200" height="195" as="alternateBounds" />
          </mxGeometry>
        </mxCell>
        <mxCell id="EWZKFUjDIKVQ4XLmrkwc-37" value="Nome" style="text;strokeColor=none;fillColor=none;align=left;verticalAlign=middle;spacingLeft=4;spacingRight=4;overflow=hidden;points=[[0,0.5],[1,0.5]];portConstraint=eastwest;rotatable=0;whiteSpace=wrap;html=1;" parent="EWZKFUjDIKVQ4XLmrkwc-40" vertex="1">
          <mxGeometry y="45" width="140" height="30" as="geometry" />
        </mxCell>
        <mxCell id="EWZKFUjDIKVQ4XLmrkwc-38" value="Email" style="text;strokeColor=none;fillColor=none;align=left;verticalAlign=middle;spacingLeft=4;spacingRight=4;overflow=hidden;points=[[0,0.5],[1,0.5]];portConstraint=eastwest;rotatable=0;whiteSpace=wrap;html=1;" parent="EWZKFUjDIKVQ4XLmrkwc-40" vertex="1">
          <mxGeometry y="85" width="140" height="30" as="geometry" />
        </mxCell>
        <mxCell id="EWZKFUjDIKVQ4XLmrkwc-39" value="Palavra-Passe" style="text;strokeColor=none;fillColor=none;align=left;verticalAlign=middle;spacingLeft=4;spacingRight=4;overflow=hidden;points=[[0,0.5],[1,0.5]];portConstraint=eastwest;rotatable=0;whiteSpace=wrap;html=1;" parent="EWZKFUjDIKVQ4XLmrkwc-40" vertex="1">
          <mxGeometry y="125" width="140" height="30" as="geometry" />
        </mxCell>
        <mxCell id="EWZKFUjDIKVQ4XLmrkwc-46" value="ID" style="text;html=1;align=center;verticalAlign=middle;resizable=0;points=[];autosize=1;strokeColor=none;fillColor=none;" parent="EWZKFUjDIKVQ4XLmrkwc-40" vertex="1">
          <mxGeometry y="170" width="40" height="30" as="geometry" />
        </mxCell>
        <mxCell id="EWZKFUjDIKVQ4XLmrkwc-41" value="Curso" style="swimlane;whiteSpace=wrap;html=1;" parent="1" vertex="1" collapsed="1">
          <mxGeometry x="570" y="445" width="80" height="30" as="geometry">
            <mxRectangle x="570" y="445" width="200" height="260" as="alternateBounds" />
          </mxGeometry>
        </mxCell>
        <mxCell id="EWZKFUjDIKVQ4XLmrkwc-45" value="Turma" style="text;html=1;align=center;verticalAlign=middle;resizable=0;points=[];autosize=1;strokeColor=none;fillColor=none;" parent="EWZKFUjDIKVQ4XLmrkwc-41" vertex="1">
          <mxGeometry y="148" width="60" height="30" as="geometry" />
        </mxCell>
        <mxCell id="EWZKFUjDIKVQ4XLmrkwc-44" value="ID" style="text;html=1;align=center;verticalAlign=middle;resizable=0;points=[];autosize=1;strokeColor=none;fillColor=none;" parent="EWZKFUjDIKVQ4XLmrkwc-41" vertex="1">
          <mxGeometry x="5" y="90" width="40" height="30" as="geometry" />
        </mxCell>
        <mxCell id="EWZKFUjDIKVQ4XLmrkwc-43" value="Nome" style="text;html=1;align=center;verticalAlign=middle;resizable=0;points=[];autosize=1;strokeColor=none;fillColor=none;" parent="EWZKFUjDIKVQ4XLmrkwc-41" vertex="1">
          <mxGeometry x="5" y="38" width="60" height="30" as="geometry" />
        </mxCell>
        <mxCell id="EWZKFUjDIKVQ4XLmrkwc-49" value="Evento" style="swimlane;whiteSpace=wrap;html=1;" parent="1" vertex="1" collapsed="1">
          <mxGeometry x="410" y="560" width="120" height="40" as="geometry">
            <mxRectangle x="410" y="560" width="200" height="230" as="alternateBounds" />
          </mxGeometry>
        </mxCell>
        <mxCell id="EWZKFUjDIKVQ4XLmrkwc-50" value="Nome" style="text;html=1;align=center;verticalAlign=middle;resizable=0;points=[];autosize=1;strokeColor=none;fillColor=none;" parent="EWZKFUjDIKVQ4XLmrkwc-49" vertex="1">
          <mxGeometry x="-5" y="40" width="60" height="30" as="geometry" />
        </mxCell>
        <mxCell id="EWZKFUjDIKVQ4XLmrkwc-51" value="ID" style="text;html=1;align=center;verticalAlign=middle;resizable=0;points=[];autosize=1;strokeColor=none;fillColor=none;" parent="EWZKFUjDIKVQ4XLmrkwc-49" vertex="1">
          <mxGeometry y="80" width="40" height="30" as="geometry" />
        </mxCell>
        <mxCell id="EWZKFUjDIKVQ4XLmrkwc-52" value="Inicio" style="text;html=1;align=center;verticalAlign=middle;resizable=0;points=[];autosize=1;strokeColor=none;fillColor=none;" parent="EWZKFUjDIKVQ4XLmrkwc-49" vertex="1">
          <mxGeometry y="120" width="50" height="30" as="geometry" />
        </mxCell>
        <mxCell id="EWZKFUjDIKVQ4XLmrkwc-53" value="Fim" style="text;html=1;align=center;verticalAlign=middle;resizable=0;points=[];autosize=1;strokeColor=none;fillColor=none;" parent="EWZKFUjDIKVQ4XLmrkwc-49" vertex="1">
          <mxGeometry y="158" width="40" height="30" as="geometry" />
        </mxCell>
        <mxCell id="EWZKFUjDIKVQ4XLmrkwc-54" value="Participantes" style="text;html=1;align=center;verticalAlign=middle;resizable=0;points=[];autosize=1;strokeColor=none;fillColor=none;" parent="EWZKFUjDIKVQ4XLmrkwc-49" vertex="1">
          <mxGeometry y="200" width="90" height="30" as="geometry" />
        </mxCell>
        <mxCell id="EWZKFUjDIKVQ4XLmrkwc-55" value="" style="endArrow=none;html=1;rounded=0;exitX=0.5;exitY=0;exitDx=0;exitDy=0;entryX=0.5;entryY=1;entryDx=0;entryDy=0;" parent="1" source="EWZKFUjDIKVQ4XLmrkwc-49" target="EWZKFUjDIKVQ4XLmrkwc-2" edge="1">
          <mxGeometry width="50" height="50" relative="1" as="geometry">
            <mxPoint x="240" y="440" as="sourcePoint" />
            <mxPoint x="290" y="390" as="targetPoint" />
          </mxGeometry>
        </mxCell>
        <mxCell id="EWZKFUjDIKVQ4XLmrkwc-56" value="&lt;h1&gt;ExplicaÃ§Ã£o&lt;/h1&gt;&lt;p&gt;Eu acho que os eventos deviam ter uma relaÃ§Ã£o de 1 para muitos com o Pessoa_Curso devido a um curso poder ter vÃ¡rios eventos mas um evento sÃ³ pode estar em 1 curso, eu fiquei na duvida se deixo tarefa dentro de agenda ou faÃ§o um separado para cada entÃ£o deixei separado.&lt;/p&gt;&lt;p&gt;Eu nÃ£o sei se agenda devia estar conectado a pessoa ou pc, eu acho que a agenda nÃ£o tem haver com o curso jÃ¡ que ele Ã© pessoal entÃ£o deixei conectada apenas a pessoa.&lt;/p&gt;" style="text;html=1;strokeColor=none;fillColor=none;spacing=5;spacingTop=-20;whiteSpace=wrap;overflow=hidden;rounded=0;" parent="1" vertex="1">
          <mxGeometry x="80" y="80" width="240" height="240" as="geometry" />
        </mxCell>
        <mxCell id="EWZKFUjDIKVQ4XLmrkwc-57" value="Agenda" style="swimlane;whiteSpace=wrap;html=1;" parent="1" vertex="1" collapsed="1">
          <mxGeometry x="260" y="550" width="80" height="30" as="geometry">
            <mxRectangle x="260" y="550" width="200" height="230" as="alternateBounds" />
          </mxGeometry>
        </mxCell>
        <mxCell id="EWZKFUjDIKVQ4XLmrkwc-59" value="Nome_UC" style="text;html=1;align=center;verticalAlign=middle;resizable=0;points=[];autosize=1;strokeColor=none;fillColor=none;" parent="EWZKFUjDIKVQ4XLmrkwc-57" vertex="1">
          <mxGeometry y="38" width="80" height="30" as="geometry" />
        </mxCell>
        <mxCell id="EWZKFUjDIKVQ4XLmrkwc-62" value="UC_Inicio" style="text;html=1;align=center;verticalAlign=middle;resizable=0;points=[];autosize=1;strokeColor=none;fillColor=none;" parent="EWZKFUjDIKVQ4XLmrkwc-57" vertex="1">
          <mxGeometry y="78" width="80" height="30" as="geometry" />
        </mxCell>
        <mxCell id="EWZKFUjDIKVQ4XLmrkwc-63" value="UC_Fim" style="text;html=1;align=center;verticalAlign=middle;resizable=0;points=[];autosize=1;strokeColor=none;fillColor=none;" parent="EWZKFUjDIKVQ4XLmrkwc-57" vertex="1">
          <mxGeometry y="120" width="70" height="30" as="geometry" />
        </mxCell>
        <mxCell id="EWZKFUjDIKVQ4XLmrkwc-64" value="Notas" style="text;html=1;align=center;verticalAlign=middle;resizable=0;points=[];autosize=1;strokeColor=none;fillColor=none;" parent="EWZKFUjDIKVQ4XLmrkwc-57" vertex="1">
          <mxGeometry x="10" y="160" width="50" height="30" as="geometry" />
        </mxCell>
        <mxCell id="EWZKFUjDIKVQ4XLmrkwc-68" value="ID" style="text;html=1;align=center;verticalAlign=middle;resizable=0;points=[];autosize=1;strokeColor=none;fillColor=none;" parent="EWZKFUjDIKVQ4XLmrkwc-57" vertex="1">
          <mxGeometry x="10" y="200" width="40" height="30" as="geometry" />
        </mxCell>
        <mxCell id="EWZKFUjDIKVQ4XLmrkwc-65" value="" style="endArrow=none;html=1;rounded=0;exitX=0.5;exitY=0;exitDx=0;exitDy=0;entryX=0.5;entryY=1;entryDx=0;entryDy=0;" parent="1" source="EWZKFUjDIKVQ4XLmrkwc-57" target="EWZKFUjDIKVQ4XLmrkwc-40" edge="1">
          <mxGeometry width="50" height="50" relative="1" as="geometry">
            <mxPoint x="240" y="500" as="sourcePoint" />
            <mxPoint x="290" y="450" as="targetPoint" />
          </mxGeometry>
        </mxCell>
        <mxCell id="EWZKFUjDIKVQ4XLmrkwc-66" value="" style="endArrow=none;html=1;rounded=0;entryX=0.25;entryY=0;entryDx=0;entryDy=0;" parent="1" target="EWZKFUjDIKVQ4XLmrkwc-57" edge="1">
          <mxGeometry width="50" height="50" relative="1" as="geometry">
            <mxPoint x="300" y="520" as="sourcePoint" />
            <mxPoint x="290" y="450" as="targetPoint" />
          </mxGeometry>
        </mxCell>
        <mxCell id="EWZKFUjDIKVQ4XLmrkwc-67" value="" style="endArrow=none;html=1;rounded=0;entryX=0.75;entryY=0;entryDx=0;entryDy=0;" parent="1" target="EWZKFUjDIKVQ4XLmrkwc-57" edge="1">
          <mxGeometry width="50" height="50" relative="1" as="geometry">
            <mxPoint x="300" y="520" as="sourcePoint" />
            <mxPoint x="290" y="450" as="targetPoint" />
          </mxGeometry>
        </mxCell>
        <mxCell id="EWZKFUjDIKVQ4XLmrkwc-69" value="Tarefa" style="swimlane;whiteSpace=wrap;html=1;" parent="1" vertex="1" collapsed="1">
          <mxGeometry x="430" y="350" width="80" height="30" as="geometry">
            <mxRectangle x="560" y="160" width="200" height="240" as="alternateBounds" />
          </mxGeometry>
        </mxCell>
        <mxCell id="EWZKFUjDIKVQ4XLmrkwc-70" value="Nome" style="text;html=1;align=center;verticalAlign=middle;resizable=0;points=[];autosize=1;strokeColor=none;fillColor=none;" parent="EWZKFUjDIKVQ4XLmrkwc-69" vertex="1">
          <mxGeometry x="-5" y="40" width="60" height="30" as="geometry" />
        </mxCell>
        <mxCell id="EWZKFUjDIKVQ4XLmrkwc-71" value="Inicio" style="text;html=1;align=center;verticalAlign=middle;resizable=0;points=[];autosize=1;strokeColor=none;fillColor=none;" parent="EWZKFUjDIKVQ4XLmrkwc-69" vertex="1">
          <mxGeometry y="80" width="50" height="30" as="geometry" />
        </mxCell>
        <mxCell id="EWZKFUjDIKVQ4XLmrkwc-72" value="Fim" style="text;html=1;align=center;verticalAlign=middle;resizable=0;points=[];autosize=1;strokeColor=none;fillColor=none;" parent="EWZKFUjDIKVQ4XLmrkwc-69" vertex="1">
          <mxGeometry x="5" y="120" width="40" height="30" as="geometry" />
        </mxCell>
        <mxCell id="EWZKFUjDIKVQ4XLmrkwc-73" value="ID" style="text;html=1;align=center;verticalAlign=middle;resizable=0;points=[];autosize=1;strokeColor=none;fillColor=none;" parent="EWZKFUjDIKVQ4XLmrkwc-69" vertex="1">
          <mxGeometry x="5" y="160" width="40" height="30" as="geometry" />
        </mxCell>
      </root>
    </mxGraphModel>
  </diagram>
</mxfile>
